<svg
  id="Outline"
  xmlns="http://www.w3.org/2000/svg"
  width="41.626"
  height="41.611"
  viewBox="0 0 41.626 41.611"
>
  <g id="Grupo_103" data-name="Grupo 103">
    <path
      id="Trazado_2479"
      data-name="Trazado 2479"
      d="M31.272,24.886a4.141,4.141,0,0,0,3.641-2.143l7.448-13.5a2.072,2.072,0,0,0-1.81-3.079H9.759L7.8,2H1V6.161H5.161l7.49,15.791L9.842,27.029a4.169,4.169,0,0,0,3.641,6.179H38.449V29.047H13.483l2.289-4.161ZM11.736,10.322H37.014l-5.742,10.4H16.666Z"
      transform="translate(-1 -2)"
      fill="#fff"
    />
    <path
      id="Trazado_2480"
      data-name="Trazado 2480"
      d="M9.15,18a4.161,4.161,0,1,0,4.161,4.161A4.156,4.156,0,0,0,9.15,18Z"
      transform="translate(3.333 15.288)"
      fill="#fff"
    />
    <path
      id="Trazado_2481"
      data-name="Trazado 2481"
      d="M19.15,18a4.161,4.161,0,1,0,4.161,4.161A4.156,4.156,0,0,0,19.15,18Z"
      transform="translate(14.138 15.288)"
      fill="#fff"
    />
  </g>
</svg>